HIERARCHY
ROOT pelvis
{
  OFFSET 0 100 0
  CHANNELS 6 Xposition Yposition Zposition Zrotation Xrotation Yrotation
  JOINT pelvis_right_femur
  {
    OFFSET -10.78128 -3.44521 -0.5502486
    CHANNELS 3 Zrotation Xrotation Yrotation
    JOINT right_femur_tibia
    {
      OFFSET -0.8047443 -44.0398 -0.1307829
      CHANNELS 3 Zrotation Xrotation Yrotation
      JOINT right_tibia_foot
      {
        OFFSET 3.006224 -47.83518 -5
        CHANNELS 3 Zrotation Xrotation Yrotation
        End Site
        {
          OFFSET 0 -5 15
        }
      }
    }
  }
  JOINT pelvis_left_femur
  {
    OFFSET 10.78128 -3.44521 -0.5502486
    CHANNELS 3 Zrotation Xrotation Yrotation
    JOINT left_femur_tibia
    {
      OFFSET 0.8047443 -44.0398 -0.1307829
      CHANNELS 3 Zrotation Xrotation Yrotation
      JOINT left_tibia_foot
      {
        OFFSET -4.370144 -48.10324 -4.275266
        CHANNELS 3 Zrotation Xrotation Yrotation
        End Site
        {
          OFFSET 0 -5 15
        }
      }
    }
  }
  JOINT pelvis_spine1
  {
    OFFSET 0 6.468898 -3.129235
    CHANNELS 3 Zrotation Xrotation Yrotation
    JOINT spine1
    {
      OFFSET 0 23.15396 4.99043
      CHANNELS 3 Zrotation Xrotation Yrotation
      JOINT spine2
      {
        OFFSET 0 20.79997 -5.064912
        CHANNELS 3 Zrotation Xrotation Yrotation
        JOINT neck
        {
          OFFSET 0 14.38658 9.616178
          CHANNELS 3 Zrotation Xrotation Yrotation
          End Site
          {
            OFFSET 0 20 0
          }
        }
      }
      JOINT right_manubrium
      {
        OFFSET -5.722621 16.35077 3.967754
        CHANNELS 3 Zrotation Xrotation Yrotation
        JOINT right_clavicle
        {
          OFFSET -13.16364 1.694482 -4.693211
          CHANNELS 3 Zrotation Xrotation Yrotation
          JOINT right_humerus
          {
            OFFSET -28.5034 -0.3100689 -2.792744
            CHANNELS 3 Zrotation Xrotation Yrotation
            JOINT right_radius
            {
              OFFSET -25.15693 0.02248979 -1.271978
              CHANNELS 3 Zrotation Xrotation Yrotation
              End Site
              {
                OFFSET -15 0 0
              }
            }
          }
        }
      }
      JOINT left_manubrium
      {
        OFFSET 5.722621 16.35077 3.967754
        CHANNELS 3 Zrotation Xrotation Yrotation
        JOINT left_clavicle
        {
          OFFSET 13.16364 1.694482 -4.693211
          CHANNELS 3 Zrotation Xrotation Yrotation
          JOINT left_humerus
          {
            OFFSET 29.39168 -1.063119 -2.237045
            CHANNELS 3 Zrotation Xrotation Yrotation
            JOINT left_radius
            {
              OFFSET 24.59957 -0.9528479 0.9047498
              CHANNELS 3 Zrotation Xrotation Yrotation
              End Site
              {
                OFFSET 15 -0 -0
              }
            }
          }
        }
      }
    }
  }
}
MOTION
Frames: 17
Frame Time: 0.0416666666667
0 103.5113 0 0.8871023 0.8843468 0.8091199 1.832446 -22.64218 8.295127 -0 36.9577 -0 2.927474 -13.96999 -6.245606 -6.577482 10.82638 -19.26146 0 -1.381552 0 -2.777466 -23.34713 19.27478 -4.359202 0.09474898 3.387226 2.134938 5.250069 -7.142223 1.645964 21.96199 8.401468 2.949993 -21.71296 10.54262 7.628063 -14.94533 9.920286 81.8572 38.59426 -16.30093 -0 0 15.15212 -12.53946 12.38553 8.55218 5.227888 -15.8555 -0.4200784 -89.7511 36.99592 15.5073 0 0 -21.77484 -6.157413 9.146524 23.15345
0.5144388 102.0958 3.356072 0.9566316 0.8837475 1.680525 1.559037 -22.05683 8.429798 -0 38.49597 -0 3.270628 -14.021 -6.24555 -6.706898 10.4478 -19.47513 0 -2.578443 0 -2.748636 -23.50762 19.49871 -4.494871 0.1184457 3.429434 2.063606 5.139357 -7.024912 1.669628 21.99553 8.446246 2.945062 -21.64044 10.61924 7.76521 -14.96863 9.869643 81.42456 38.75399 -15.76623 -0 0 15.49398 -12.6533 12.38605 8.720672 5.147874 -15.5188 -0.3192555 -90.03587 37.3466 15.88614 0 0 -21.27077 -6.530897 8.940742 23.68511
0.9264625 100.5032 6.621594 0.579473 1.339058 2.378901 2.589268 -24.96058 7.809622 -0 31.97236 -0 1.534283 -14.23437 -5.894762 -6.203156 12.0991 -19.21225 0 -1.391865 0 -1.932765 -23.50165 19.17363 -4.068593 -0.1560026 3.236233 2.430265 5.57131 -7.576814 1.492653 21.75861 8.335432 3.034082 -22.30014 10.34186 7.21307 -15.33321 10.10945 82.97296 38.34982 -17.73608 -0 0 14.64622 -11.78125 12.09054 8.006451 5.633363 -16.99118 -0.6624338 -89.35402 35.86664 15.08955 0 0 -23.21522 -4.690997 10.24036 21.08317
1.291811 98.83903 9.892278 0.4062783 1.444075 2.993645 3.071557 -26.12922 7.575393 -0 29.10259 -0 0.8469841 -14.2366 -5.829704 -5.975333 12.80515 -18.94378 -0 0.1006755 -0 -1.812756 -23.33225 18.87422 -3.844738 -0.2326025 3.157522 2.577443 5.766169 -7.806003 1.434091 21.67795 8.267222 3.054699 -22.50253 10.20889 6.96622 -15.37823 10.2076 83.70681 38.09341 -18.65623 -0 0 14.12833 -11.49439 12.03238 7.694377 5.806193 -17.62349 -0.8275788 -88.95466 35.21696 14.56404 0 0 -24.11616 -3.932396 10.67202 20.02327
1.602177 97.16526 13.25462 0.2489287 1.361701 3.516025 3.550372 -27.09519 7.272912 -0 26.33007 -0 0.1511916 -13.92035 -5.836489 -5.74459 13.49754 -18.43987 -0 2.715492 -0 -1.889204 -22.92565 18.40311 -3.569315 -0.2781919 3.075237 2.687743 6.031286 -8.012831 1.395961 21.63358 8.159823 3.056998 -22.58109 10.03781 6.650196 -15.33247 10.30812 84.58204 37.60946 -19.64472 -0 0 13.41853 -11.40488 12.02837 7.404498 5.94345 -18.29539 -1.065578 -88.40745 34.38371 13.82838 0 0 -25.00628 -3.09628 11.02449 18.85479
1.867315 95.54298 16.76766 0.148344 1.147442 3.959094 3.923016 -27.59894 7.066501 -0 24.39983 -0 -0.2569769 -13.50201 -5.953179 -5.57663 13.96207 -17.8455 -0 5.937993 -0 -2.253003 -22.3846 17.85695 -3.320299 -0.2530711 3.022032 2.738709 6.24461 -8.136831 1.395978 21.63807 8.051987 3.034557 -22.50558 9.894424 6.403064 -15.1477 10.37365 85.29405 37.126 -20.41858 -0 0 12.70479 -11.50061 12.12356 7.206367 5.986258 -18.76317 -1.273738 -87.86951 33.74264 13.05639 0 0 -25.6819 -2.56377 11.12045 18.10908
2.092748 94.02239 20.49119 0.08946038 0.7947744 4.32869 4.232643 -27.74636 6.882076 -0 22.97425 -0 -0.5074077 -12.92018 -6.150054 -5.442105 14.26936 -17.1155 -0 9.869014 -0 -2.833005 -21.67633 17.22404 -3.068187 -0.1784379 2.986693 2.741698 6.455313 -8.203437 1.424334 21.68205 7.929091 2.992493 -22.3007 9.752218 6.168419 -14.8615 10.42233 85.95341 36.56382 -21.07961 -0 0 11.93473 -11.77253 12.29297 7.072546 5.963302 -19.12753 -1.491701 -87.29781 33.13767 12.21012 0 0 -26.22017 -2.179797 11.05437 17.56491
2.285222 92.65257 24.47556 0.07142751 0.3295633 4.630555 4.483731 -27.52865 6.743868 -0 22.03914 -0 -0.5745021 -12.24697 -6.426728 -5.338245 14.38504 -16.27413 -0 14.41984 -0 -3.626019 -20.8142 16.52826 -2.819065 -0.05163766 2.975684 2.700442 6.64563 -8.210526 1.480588 21.76143 7.795994 2.931325 -21.97687 9.61855 5.963954 -14.47719 10.45273 86.52265 35.96854 -21.60419 -0 0 11.14077 -12.19675 12.54004 7.005087 5.872785 -19.36643 -1.702363 -86.71775 32.61859 11.32198 0 0 -26.61666 -1.988694 10.81869 17.2834
2.451769 91.47956 28.76783 0.09163204 -0.2479883 4.868622 4.681097 -26.92444 6.637893 -0 21.52665 -0 -0.4806433 -11.49039 -6.773068 -5.253677 14.27908 -15.31331 -0 19.57493 -0 -4.607858 -19.78265 15.78606 -2.568141 0.1229123 2.99266 2.615177 6.824425 -8.158129 1.562755 21.87342 7.648587 2.851947 -21.53946 9.487692 5.778731 -14.01318 10.46945 87.00708 35.32892 -21.98928 -0 0 10.335 -12.77582 12.85879 7.007623 5.718955 -19.49157 -1.910178 -86.13735 32.15661 10.41306 0 0 -26.86598 -1.964595 10.43117 17.2281
2.600155 90.54751 33.40833 0.1474529 -0.9277267 5.045446 4.826859 -25.8926 6.56712 -0 21.3907 -0 -0.2285117 -10.69457 -7.180218 -5.17559 13.89447 -14.23862 -0 25.27083 -0 -5.760162 -18.57445 15.02424 -2.315573 0.3434978 3.045893 2.48638 6.989591 -8.04259 1.669425 22.01428 7.485568 2.754761 -20.99587 9.358597 5.61301 -13.48817 10.4749 87.3869 34.6573 -22.21141 -0 0 9.550196 -13.50507 13.24582 7.088263 5.502756 -19.4968 -2.108842 -85.57947 31.75639 9.524604 0 0 -26.95088 -2.109707 9.896214 17.40342
2.739236 89.89504 38.42814 0.2349222 -1.69801 5.161779 4.920869 -24.37615 6.528773 -0 21.56842 -0 0.1665508 -9.909241 -7.629504 -5.084659 13.15417 -13.05871 -0 31.3925 -0 -7.04871 -17.18454 14.28002 -2.061712 0.6048441 3.146127 2.314214 7.142709 -7.859327 1.797729 22.17864 7.304456 2.64084 -20.35793 9.227915 5.462233 -12.93499 10.47319 87.63967 33.96153 -22.23794 -0 0 8.833927 -14.38074 13.69152 7.258629 5.227489 -19.37937 -2.292775 -85.07704 31.41201 8.719452 0 0 -26.8431 -2.411942 9.226487 17.79483
2.87929 89.54984 43.84297 0.3471602 -2.534192 5.216072 4.963061 -22.31291 6.523253 -0 21.96905 -0 0.6804624 -9.214081 -8.089549 -4.95378 11.95948 -11.79726 -0 37.72588 -0 -8.421723 -15.62344 13.60488 -1.809652 0.8978208 3.307635 2.101116 7.282913 -7.604006 1.942475 22.3574 7.10404 2.512407 -19.64832 9.092564 5.32293 -12.40278 10.4695 87.73078 33.26095 -22.02412 -0 0 8.25869 -15.38715 14.17912 7.531405 4.899689 -19.13535 -2.451218 -84.68012 31.12457 8.091525 0 0 -26.50645 -2.856147 8.443065 18.38459
3.032365 89.51914 49.64569 0.4729989 -3.394731 5.203736 4.954315 -19.6496 6.549606 -0 22.45645 -0 1.268551 -8.717284 -8.509018 -4.747501 10.19835 -10.49668 -0 43.9193 -0 -9.799091 -13.9265 13.06482 -1.56536 1.20617 3.547052 1.853315 7.409366 -7.27499 2.094607 22.53625 6.884701 2.373794 -18.90604 8.948606 5.18976 -11.9638 10.4711 87.61777 32.58378 -21.51712 -0 0 7.92438 -16.49117 14.67996 7.917135 4.532348 -18.76661 -2.569921 -84.45806 30.89364 7.770897 0 0 -25.90021 -3.412948 7.586184 19.13531
3.212486 89.77793 55.79837 0.5962638 -4.216772 5.116658 4.897716 -16.36546 6.605552 -0 22.84529 -0 1.862363 -8.553459 -8.814646 -4.426363 7.764345 -9.221558 -0 49.46146 -0 -11.06969 -12.16462 12.73517 -1.338494 1.505054 3.880937 1.582671 7.520718 -6.876221 2.240358 22.69498 6.6499 2.232061 -18.19021 8.791934 5.056348 -11.71299 10.48709 87.25392 31.96863 -20.66325 -0 0 7.954761 -17.63454 15.15183 8.418957 4.146821 -18.2845 -2.631514 -84.49795 30.71652 7.918887 0 0 -24.9874 -4.037353 6.721024 19.98654
3.435563 90.25771 62.22747 0.6972576 -4.920179 4.94385 4.798529 -12.50128 6.684629 -0 22.9224 -0 2.372509 -8.859683 -8.91797 -3.958133 4.592339 -8.053754 -0 53.7113 -0 -12.09639 -10.447 12.68765 -1.142074 1.761421 4.32046 1.306867 7.61654 -6.420051 2.361765 22.80922 6.40711 2.097057 -17.57713 8.618967 4.915309 -11.75776 10.52727 86.59986 31.45758 -19.42228 -0 0 8.478319 -18.73394 15.54099 9.026913 3.773101 -17.71471 -2.619602 -84.89299 30.57999 8.703644 0 0 -23.74703 -4.667165 5.939213 20.85057
3.718689 90.8434 68.82653 0.7578022 -5.423675 4.674452 4.662477 -8.184888 6.774457 -0 22.50968 -0 2.707735 -9.729536 -8.738069 -3.335593 0.7071678 -7.078033 -0 56.01627 -0 -12.73832 -8.908088 12.97015 -0.9908906 1.939059 4.863672 1.046713 7.698601 -5.928205 2.440002 22.85607 6.167935 1.980167 -17.14591 8.428526 4.759999 -12.19142 10.59924 85.64167 31.08306 -17.78789 -0 0 9.589456 -19.69392 15.79157 9.71468 3.44593 -17.09766 -2.525266 -85.71608 30.45249 10.24852 0 0 -22.1887 -5.229591 5.346279 21.62061
4.078585 91.38651 75.46973 0.7694564 -5.674028 4.30356 4.491953 -3.635738 6.856912 -0 21.5631 -0 2.807536 -11.1514 -8.237361 -2.59356 -3.731347 -6.360546 -0 55.92083 -0 -12.89059 -7.674884 13.58517 -0.8983977 2.008801 5.487735 0.8197461 7.772034 -5.429046 2.461714 22.82338 5.946469 1.891572 -16.95176 8.224324 4.587105 -13.05298 10.70412 84.41244 30.8505 -15.80933 -0 0 11.29636 -20.4363 15.86178 10.44261 3.196088 -16.48232 -2.354712 -86.97984 30.28163 12.56088 0 0 -20.36309 -5.655481 5.032267 22.19224
